<?xml version="1.0"?>
<svg xmlns="http://www.w3.org/2000/svg" xmlns:xlink="http://www.w3.org/1999/xlink" xmlns:svgjs="http://svgjs.com/svgjs" version="1.1" width="512" height="512" x="0" y="0" viewBox="0 0 32 32" style="enable-background:new 0 0 512 512" xml:space="preserve" class=""><circle r="16" cx="16" cy="16" fill="#ffffff" shape="circle" transform="matrix(0.84,0,0,0.84,2.5600000000000005,2.5600000000000005)"/><g transform="matrix(0.6699999999999999,0,0,0.6699999999999999,5.280000000000001,5.280000000000001)"><path xmlns="http://www.w3.org/2000/svg" d="m26 32h-20c-3.314 0-6-2.686-6-6v-20c0-3.314 2.686-6 6-6h20c3.314 0 6 2.686 6 6v20c0 3.314-2.686 6-6 6z" fill="#ffffff" data-original="#fff9dd" style="" class=""/><g xmlns="http://www.w3.org/2000/svg" fill="#ffe777"><path d="m12.296 17.893 6.892 1.464.288-1.393-6.892-1.475z" fill="#7f7575" data-original="#ffe777" style="" class=""/><path d="m12.143 19.714h7.044v1.418h-7.044z" fill="#7f7575" data-original="#ffe777" style="" class=""/><path d="m13.2 14.554 6.381 3.017.592-1.296-6.385-3.025z" fill="#7f7575" data-original="#ffe777" style="" class=""/></g><path xmlns="http://www.w3.org/2000/svg" d="m19.582 17.572-.001-.001v.001z" fill="#7f7575" data-original="#ffd200" style="" class=""/><path xmlns="http://www.w3.org/2000/svg" d="m9.333 18.286v5.714h12.662v-5.714h-1.409v4.285h-9.844v-4.285z" fill="#7f7575" data-original="#ffd200" style="" class=""/><path xmlns="http://www.w3.org/2000/svg" d="m14.968 11.375 5.406 4.582.898-1.1-5.406-4.582z" fill="#7f7575" data-original="#ffe777" style="" class=""/><path xmlns="http://www.w3.org/2000/svg" d="m22.667 13.725-4.202-5.725-1.127.857 4.202 5.725z" fill="#7f7575" data-original="#ffe777" style="" class=""/></g></svg>
